<svg width="64" height="64" viewBox="0 0 64 64" fill="none" xmlns="http://www.w3.org/2000/svg">
<g clip-path="url(#clip0_22_1197)">
<mask id="mask0_22_1197" style="mask-type:luminance" maskUnits="userSpaceOnUse" x="0" y="0" width="64" height="64">
<path d="M64 0H0V64H64V0Z" fill="white"/>
</mask>
<g mask="url(#mask0_22_1197)">
<path d="M64 32C64 49.6731 49.6731 64 32 64C14.3269 64 0 49.6731 0 32C0 14.3269 14.3269 0 32 0C49.6731 0 64 14.3269 64 32Z" fill="#1D2633"/>
<path d="M55.7707 40.1707C56.8515 40.1707 57.62 41.2209 57.2133 42.2222C53.173 52.1786 43.4063 59.2 31.9997 59.2C20.5932 59.2 10.8264 52.1786 6.7859 42.2222C6.3795 41.2209 7.14818 40.1707 8.22885 40.1707H55.7707Z" fill="#EDEBDE"/>
<path d="M57.2135 21.7777C57.6202 22.7791 56.8517 23.8294 55.771 23.8294H8.22907C7.1484 23.8294 6.37978 22.7791 6.78613 21.7777C10.8266 11.8214 20.5934 4.79999 32 4.79999C43.4066 4.79999 53.1733 11.8214 57.2135 21.7777Z" fill="#EDEBDE"/>
<path d="M27.2 5.22219C28.7581 4.94475 30.3621 4.79999 32.0001 4.79999C33.6379 4.79999 35.2419 4.94475 36.7999 5.22219V23.8294H27.2V5.22219Z" fill="#47965E"/>
<path d="M36.8003 40.1707H27.1995C27.1793 44.345 26.4188 48.4831 24.9528 52.3923L22.9749 57.6671C25.7989 58.6602 28.8364 59.2 31.9999 59.2C35.1635 59.2 38.2009 58.6602 41.025 57.6671L39.0471 52.3923C37.5811 48.4831 36.8205 44.345 36.8003 40.1707Z" fill="#47965E"/>
<path d="M36.7998 5.22217C40.2724 5.84049 43.5172 7.11781 46.3998 8.92018V23.8294H36.7998V5.22217Z" fill="#295837"/>
<path d="M41.0249 57.6671C45.3908 56.1316 49.247 53.5143 52.2714 50.1363L51.7991 49.836C48.4844 47.7265 46.4583 44.0918 46.4011 40.1707H36.8003C36.8204 44.345 37.581 48.4831 39.0471 52.3923L41.0249 57.6671Z" fill="#295837"/>
<path d="M17.5999 8.92018C20.4825 7.11781 23.7271 5.84049 27.1999 5.22217V23.8294H17.5999V8.92018Z" fill="#76FA9C"/>
<path d="M17.5987 40.1707H27.1995C27.1794 44.3271 26.4252 48.4477 24.9715 52.3422L22.9749 57.6671C18.6088 56.1316 14.7528 53.5143 11.7285 50.1363L12.2005 49.836C15.5153 47.7265 17.5415 44.0918 17.5987 40.1707Z" fill="#76FA9C"/>
<path d="M8.55947 27.5118L8.45728 31.4292L8.46863 35.1195L7.81005 35.2785C7.61325 35.18 7.41263 35.0476 7.20825 34.881C7.00386 34.707 6.8373 34.4987 6.70863 34.2565L7.18554 31.679H4.16515L4.1765 35.1195L3.51792 35.2785C3.32111 35.18 3.1205 35.0476 2.91612 34.881C2.71173 34.707 2.54519 34.4987 2.4165 34.2565L2.97289 31.2816L2.83663 27.1484L3.16592 26.9213C3.24919 26.9364 3.36274 26.9781 3.50657 27.0462C3.65796 27.1143 3.80558 27.1901 3.94941 27.2733C4.09324 27.3566 4.19921 27.436 4.26734 27.5118L4.18786 30.4072H7.23096L7.12876 27.1484L7.45805 26.9213C7.5413 26.9364 7.65485 26.9781 7.7987 27.0462C7.95008 27.1143 8.09769 27.1901 8.24154 27.2733C8.38538 27.3566 8.49134 27.436 8.55947 27.5118ZM14.9384 33.632C15.0065 33.7229 15.0746 33.8515 15.1427 34.0181C15.2109 34.1846 15.2525 34.355 15.2677 34.529L13.7347 35.2785C13.5531 35.2255 13.3563 35.1384 13.1443 35.0173C12.9399 34.8962 12.7847 34.7864 12.6787 34.688L12.7242 33.8591C12.3457 34.2755 11.9634 34.6085 11.5773 34.8583C11.1913 35.1081 10.8544 35.2482 10.5667 35.2785C10.4532 35.2179 10.3132 35.1119 10.1466 34.9605C9.98765 34.8016 9.83627 34.6275 9.69243 34.4382C9.55617 34.2414 9.46533 34.0559 9.41991 33.8818L9.65836 30.7479C9.77191 30.5057 9.93465 30.2634 10.1466 30.0212C10.3586 29.7714 10.5705 29.5707 10.7825 29.4194C11.3275 29.3209 11.8574 29.2642 12.3722 29.249C12.8869 29.2263 13.4546 29.3134 14.0754 29.5102C14.1586 29.601 14.2344 29.7108 14.3025 29.8395C14.3706 29.9682 14.4274 30.0931 14.4728 30.2142C14.5258 30.3278 14.5561 30.4148 14.5637 30.4754C14.4879 30.8084 14.3857 31.1339 14.2571 31.4519C14.1359 31.7698 13.9883 32.0726 13.8142 32.3603L13.9505 33.8818L14.9384 33.632ZM10.9869 33.8932C11.2594 33.7947 11.5584 33.5828 11.8839 33.2573C12.217 32.9318 12.5198 32.5457 12.7923 32.0991L12.8377 30.3845C12.5274 30.3769 12.2283 30.3921 11.9407 30.4299C11.653 30.4678 11.3805 30.5246 11.1231 30.6003C10.9869 30.9787 10.8885 31.3648 10.8279 31.7585C10.7749 32.1445 10.7484 32.5041 10.7484 32.8372C10.756 33.1627 10.7825 33.4239 10.8279 33.6207C10.8733 33.8175 10.9263 33.9083 10.9869 33.8932ZM19.2255 29.2377C19.3996 29.3285 19.5661 29.4989 19.7251 29.7487C19.8916 29.9909 20.009 30.2445 20.0771 30.5094L19.9749 31.9288C19.8462 32.0196 19.6834 32.0878 19.4866 32.1332C19.2898 32.171 19.1081 32.1937 18.9416 32.2013L18.6691 31.9401C18.7069 31.66 18.7296 31.4141 18.7372 31.2021C18.7523 30.9826 18.7448 30.7895 18.7145 30.623C18.4798 30.7971 18.2603 31.0507 18.0559 31.3838C17.8591 31.7093 17.6774 32.0726 17.5109 32.4738L17.545 35.0968C17.3784 35.1422 17.1854 35.1649 16.9659 35.1649C16.7463 35.1649 16.5495 35.1422 16.3754 35.0968C16.1407 34.847 15.9477 34.5631 15.7963 34.2452C15.8493 33.9954 15.925 33.7304 16.0234 33.4503C16.1218 33.1627 16.2353 32.8788 16.3641 32.5987V32.1899L16.2278 30.623L15.2399 30.8728C15.1869 30.7819 15.1226 30.657 15.0469 30.4981C14.9712 30.3315 14.9258 30.1612 14.9106 29.9871L16.4435 29.2377C16.5192 29.2453 16.6252 29.2869 16.7615 29.3626C16.9053 29.4383 17.0454 29.5216 17.1816 29.6124C17.3254 29.6957 17.4314 29.7676 17.4995 29.8281L17.4541 30.7252C17.7645 30.2937 18.0786 29.9379 18.3966 29.6578C18.7145 29.3777 18.9908 29.2377 19.2255 29.2377ZM25.5059 29.3967C25.5891 29.4799 25.6725 29.5897 25.7557 29.7259C25.839 29.8546 25.9109 29.9795 25.9714 30.1007C26.0396 30.2142 26.0774 30.3013 26.085 30.3618C25.9336 31.3307 25.6838 32.1672 25.3356 32.8712C24.9873 33.5752 24.5937 34.1316 24.1547 34.5404C23.7232 34.9416 23.2993 35.1876 22.8829 35.2785C22.7618 35.2103 22.6104 35.1006 22.4287 34.9492C22.2546 34.7978 22.0919 34.6275 21.9405 34.4382C21.7891 34.2414 21.6793 34.0559 21.6112 33.8818L21.2251 30.7025L20.3962 30.9182C20.3281 30.8274 20.26 30.6911 20.1918 30.5094C20.1237 30.3202 20.0821 30.1385 20.0669 29.9644L21.7361 29.2377C21.9102 29.3058 22.1032 29.4421 22.3152 29.6465C22.5347 29.8433 22.705 30.0476 22.8262 30.2596C22.705 30.676 22.6407 31.1037 22.6331 31.5427C22.6255 31.9818 22.6558 32.383 22.724 32.7463C22.7921 33.1097 22.8678 33.3973 22.9511 33.6093C23.0419 33.8213 23.1214 33.9159 23.1895 33.8932C23.409 33.8099 23.6248 33.6169 23.8367 33.3141C24.0562 33.0113 24.2531 32.6517 24.4272 32.2354L23.9957 29.6351C24.1623 29.5594 24.3855 29.4951 24.6656 29.4421C24.9457 29.3815 25.2258 29.3664 25.5059 29.3967ZM30.7591 33.3141C30.8121 33.3822 30.8688 33.5147 30.9294 33.7115C30.9975 33.9083 31.0278 34.0824 31.0202 34.2338C30.6947 34.3701 30.3541 34.5063 29.9983 34.6426C29.6425 34.7713 29.3094 34.8924 28.9991 35.0059C28.6962 35.1195 28.4464 35.2103 28.2496 35.2785C28.015 35.2179 27.769 35.1233 27.5116 34.9946C27.2542 34.8659 27.0195 34.7145 26.8076 34.5404C26.5956 34.3587 26.4442 34.177 26.3534 33.9954L26.5123 30.5208C26.6183 30.3315 26.7659 30.1423 26.9552 29.953C27.152 29.7562 27.345 29.5783 27.5343 29.4194C27.9734 29.3209 28.401 29.2604 28.8174 29.2377C29.2413 29.215 29.6463 29.2339 30.0323 29.2945C30.1005 29.3323 30.1913 29.4156 30.3049 29.5443C30.426 29.6654 30.5433 29.7903 30.6569 29.919C30.7704 30.0477 30.8461 30.1423 30.884 30.2029L30.8385 31.8947C30.6417 32.0386 30.3768 32.1899 30.0437 32.3489C29.7106 32.5079 29.3435 32.6631 28.9423 32.8145C28.5411 32.9583 28.1399 33.087 27.7387 33.2005C27.7463 33.3444 27.7576 33.4844 27.7727 33.6207C27.7879 33.7569 27.8068 33.8894 27.8295 34.0181L30.7591 33.3141ZM29.6236 30.464C29.3511 30.4262 29.0861 30.4148 28.8287 30.4299C28.5713 30.4451 28.3026 30.4905 28.0225 30.5662C27.9468 30.8009 27.8863 31.0545 27.8409 31.327C27.7954 31.5995 27.7614 31.8758 27.7387 32.1559C28.0642 32.0499 28.4048 31.9137 28.7606 31.7471C29.124 31.573 29.4533 31.3913 29.7485 31.2021L29.6236 30.464ZM32.7859 30.5321C32.8995 30.7668 33.0774 30.975 33.3196 31.1567C33.5618 31.3307 33.8344 31.5162 34.1372 31.713C34.4399 31.9023 34.739 32.1294 35.0342 32.3943C35.337 32.6517 35.6057 32.981 35.8404 33.3822C35.7798 33.7304 35.6701 34.0597 35.5111 34.3701C35.3521 34.6804 35.1591 34.9227 34.932 35.0968C34.5611 35.1952 34.1523 35.2482 33.7057 35.2558C33.259 35.2709 32.7821 35.2293 32.275 35.1309C32.1766 35.0551 32.063 34.9605 31.9343 34.847C31.8056 34.7258 31.6921 34.6009 31.5937 34.4723L31.6505 32.9848C31.7791 32.9394 31.9305 32.9129 32.1047 32.9053C32.2787 32.8902 32.4377 32.9015 32.5816 32.9394L32.7632 34.177C33.0963 34.2301 33.4369 34.2338 33.7852 34.1884C34.1409 34.1354 34.4362 34.0521 34.6708 33.9386C34.4816 33.6888 34.2431 33.4655 33.9555 33.2687C33.6754 33.0719 33.3802 32.8788 33.0698 32.6896C32.767 32.4928 32.4831 32.2694 32.2182 32.0196C31.9608 31.7698 31.7602 31.4632 31.6164 31.0999C31.6391 30.9333 31.6883 30.7441 31.764 30.5321C31.8397 30.3126 31.9305 30.1044 32.0365 29.9076C32.1501 29.7108 32.2712 29.5556 32.3999 29.4421C32.8919 29.3058 33.3612 29.2377 33.8079 29.2377C34.2545 29.2301 34.7314 29.2793 35.2386 29.3853C35.337 29.4458 35.4392 29.5519 35.5452 29.7032C35.6587 29.8546 35.7457 29.9758 35.8063 30.0666L35.6474 31.4746C35.5186 31.52 35.371 31.5427 35.2045 31.5427C35.038 31.5427 34.879 31.5276 34.7276 31.4973L34.6254 30.3391C34.3226 30.3164 34.0085 30.3202 33.683 30.3505C33.365 30.3808 33.066 30.4413 32.7859 30.5321ZM40.5845 33.5071C40.6375 33.5752 40.6943 33.6964 40.7548 33.8705C40.8154 34.0446 40.8419 34.2073 40.8343 34.3587C40.6299 34.4799 40.3953 34.6009 40.1303 34.7221C39.8654 34.8432 39.608 34.9529 39.3582 35.0514C39.116 35.1498 38.9116 35.2255 38.745 35.2785C38.5482 35.2179 38.3325 35.1233 38.0978 34.9946C37.8632 34.8659 37.6512 34.7145 37.4619 34.5404C37.2802 34.3587 37.1629 34.177 37.1099 33.9954L37.3597 30.7479L36.4854 30.9182L36.2015 30.1461L37.3711 29.1355L37.2916 28.2271C37.4203 28.0909 37.5755 27.9584 37.7571 27.8297C37.9388 27.6934 38.113 27.5912 38.2795 27.5231L38.6996 27.8183L38.6542 29.3967C38.9646 29.3664 39.2825 29.3475 39.608 29.3399C39.9411 29.3323 40.2704 29.3437 40.5959 29.3739L40.7094 30.2823L40.3574 30.6457C39.7518 30.6003 39.1727 30.5889 38.6201 30.6116C38.5672 30.9523 38.5293 31.3232 38.5066 31.7244C38.4839 32.1256 38.4839 32.523 38.5066 32.9167C38.5293 33.3027 38.5823 33.6585 38.6655 33.984L40.5845 33.5071ZM47.2651 27.5118L47.1629 31.4292L47.1743 35.1195L46.5157 35.2785C46.3189 35.18 46.1183 35.0476 45.9139 34.881C45.7095 34.707 45.543 34.4987 45.4143 34.2565L45.8912 31.679H42.8708L42.8822 35.1195L42.2236 35.2785C42.0268 35.18 41.8262 35.0476 41.6218 34.881C41.4174 34.707 41.2508 34.4987 41.1222 34.2565L41.6785 31.2816L41.5423 27.1484L41.8716 26.9213C41.9548 26.9364 42.0684 26.9781 42.2122 27.0462C42.3636 27.1143 42.5112 27.1901 42.6551 27.2733C42.7989 27.3566 42.9049 27.436 42.973 27.5118L42.8935 30.4072H45.9366L45.8344 27.1484L46.1637 26.9213C46.247 26.9364 46.3605 26.9781 46.5043 27.0462C46.6557 27.1143 46.8033 27.1901 46.9472 27.2733C47.091 27.3566 47.197 27.436 47.2651 27.5118ZM54.208 33.6434C54.2611 33.7342 54.3251 33.8629 54.401 34.0294C54.4769 34.1884 54.5223 34.355 54.5373 34.529L53.0044 35.2785C52.9285 35.2709 52.8191 35.2293 52.6751 35.1536C52.5388 35.0778 52.399 34.9946 52.255 34.9038C52.1187 34.8129 52.0165 34.741 51.9484 34.688L51.9938 33.7456C51.5926 34.1846 51.1952 34.5518 50.8016 34.847C50.4155 35.1346 50.1127 35.2785 49.8932 35.2785C49.7797 35.2179 49.6282 35.1119 49.439 34.9605C49.2573 34.8091 49.087 34.6388 48.928 34.4496C48.7691 34.2603 48.6669 34.0786 48.6215 33.9045L48.8826 30.6684L48.0424 30.8841C47.9742 30.7933 47.9061 30.6646 47.838 30.4981C47.7698 30.3315 47.7282 30.1612 47.7131 29.9871L49.246 29.2377C49.4428 29.3361 49.6509 29.4648 49.8705 29.6238C50.0976 29.7827 50.2717 29.9568 50.3928 30.1461C50.2566 30.6154 50.1581 31.0961 50.0976 31.5881C50.0446 32.0726 50.0219 32.5268 50.0295 32.9507C50.037 33.3671 50.0673 33.7115 50.1203 33.984C50.4003 33.8705 50.7032 33.6358 51.0287 33.28C51.3617 32.9167 51.6681 32.5041 51.9484 32.0423L52.0051 29.5329C52.1791 29.4875 52.3948 29.4458 52.6524 29.408C52.9171 29.3702 53.1329 29.3739 53.2996 29.4194C53.4209 29.5405 53.5267 29.6729 53.6175 29.8168C53.7084 29.9606 53.7915 30.112 53.8673 30.271C53.8446 30.5813 53.7615 30.9106 53.6175 31.2589C53.4813 31.6071 53.3032 31.9553 53.0839 32.3035V32.3262L53.2201 33.8932L54.208 33.6434ZM58.9961 29.2377C59.1324 29.2982 59.2764 29.3967 59.4276 29.5329C59.5793 29.6692 59.7156 29.8244 59.8364 29.9985C59.9654 30.1726 60.0562 30.3505 60.1089 30.5321L59.9386 33.9045C59.8704 34.0332 59.7682 34.177 59.632 34.336C59.4957 34.4874 59.3445 34.635 59.1778 34.7789C59.0116 34.9151 58.8485 35.0287 58.6895 35.1195C58.1373 35.1952 57.5731 35.2406 56.9977 35.2558C56.4299 35.2785 55.919 35.2255 55.4648 35.0968C55.3894 35.0059 55.3058 34.9 55.215 34.7789C55.1319 34.6577 55.0601 34.5404 54.9992 34.4269C54.9388 34.3133 54.9011 34.2301 54.8857 34.177C54.9239 33.9575 54.9729 33.7418 55.0333 33.5298C55.1014 33.3103 55.1773 33.0983 55.2604 32.8939L55.2717 32.1786L55.3058 27.2392L54.4201 27.4663C54.3675 27.3755 54.303 27.2506 54.2271 27.0916C54.1517 26.9251 54.1063 26.7547 54.0908 26.5807L55.6237 25.8312C55.6996 25.8388 55.8054 25.8767 55.9417 25.9448C56.0857 26.0129 56.2255 26.0924 56.3618 26.1832C56.5058 26.2741 56.6116 26.3536 56.6797 26.4217L56.3618 31.0658C56.6725 30.6873 56.9904 30.3618 57.3156 30.0893C57.6413 29.8168 57.9515 29.6086 58.2467 29.4648C58.5419 29.3134 58.7917 29.2377 58.9961 29.2377ZM56.4867 34.143C56.8046 34.1581 57.1267 34.1467 57.4519 34.1089C57.7775 34.0711 58.1104 34.0181 58.4511 33.9499C58.5873 33.4806 58.6782 33.0264 58.7236 32.5874C58.7768 32.1408 58.7959 31.7395 58.7804 31.3838C58.7731 31.0204 58.7463 30.7365 58.7009 30.5321C58.4815 30.6003 58.2317 30.763 57.9515 31.0204C57.679 31.2778 57.4106 31.5919 57.1453 31.9629C56.8805 32.3338 56.6457 32.7236 56.4413 33.1324L56.4867 34.143Z" fill="white"/>
</g>
</g>
<defs>
<clipPath id="clip0_22_1197">
<rect width="64" height="64" fill="white"/>
</clipPath>
</defs>
</svg>
