<svg width="16" height="16" viewBox="0 0 16 16" fill="none" xmlns="http://www.w3.org/2000/svg">
<path d="M7.99997 0C10.1736 0 10.4448 0.00799992 11.2976 0.0479998C12.1496 0.0879996 12.7296 0.221599 13.24 0.419999C13.768 0.623198 14.2128 0.898397 14.6575 1.3424C15.0643 1.74231 15.3791 2.22606 15.5799 2.75999C15.7775 3.26959 15.9119 3.85039 15.9519 4.70238C15.9895 5.55518 15.9999 5.82638 15.9999 7.99997C15.9999 10.1736 15.9919 10.4448 15.9519 11.2976C15.9119 12.1496 15.7775 12.7296 15.5799 13.24C15.3797 13.7742 15.0648 14.258 14.6575 14.6575C14.2575 15.0642 13.7738 15.3789 13.24 15.5799C12.7304 15.7775 12.1496 15.9119 11.2976 15.9519C10.4448 15.9895 10.1736 15.9999 7.99997 15.9999C5.82638 15.9999 5.55518 15.9919 4.70238 15.9519C3.85039 15.9119 3.27039 15.7775 2.75999 15.5799C2.22585 15.3795 1.74202 15.0647 1.3424 14.6575C0.935522 14.2577 0.620743 13.7739 0.419999 13.24C0.221599 12.7304 0.0879997 12.1496 0.0479998 11.2976C0.0103999 10.4448 0 10.1736 0 7.99997C0 5.82638 0.00799993 5.55518 0.0479998 4.70238C0.0879997 3.84959 0.221599 3.27039 0.419999 2.75999C0.620187 2.22574 0.93504 1.74185 1.3424 1.3424C1.74213 0.935382 2.22594 0.620581 2.75999 0.419999C3.27039 0.221599 3.84959 0.0879996 4.70238 0.0479998C5.55518 0.0103999 5.82638 0 7.99997 0ZM7.99997 3.99999C6.93911 3.99999 5.9217 4.42141 5.17155 5.17155C4.42141 5.9217 3.99999 6.93911 3.99999 7.99997C3.99999 9.06083 4.42141 10.0782 5.17155 10.8284C5.9217 11.5785 6.93911 12 7.99997 12C9.06084 12 10.0782 11.5785 10.8284 10.8284C11.5785 10.0782 12 9.06083 12 7.99997C12 6.93911 11.5785 5.9217 10.8284 5.17155C10.0782 4.42141 9.06084 3.99999 7.99997 3.99999ZM13.2 3.79999C13.2 3.53477 13.0946 3.28042 12.9071 3.09288C12.7195 2.90535 12.4652 2.79999 12.2 2.79999C11.9347 2.79999 11.6804 2.90535 11.4929 3.09288C11.3053 3.28042 11.2 3.53477 11.2 3.79999C11.2 4.0652 11.3053 4.31955 11.4929 4.50709C11.6804 4.69463 11.9347 4.79998 12.2 4.79998C12.4652 4.79998 12.7195 4.69463 12.9071 4.50709C13.0946 4.31955 13.2 4.0652 13.2 3.79999ZM7.99997 5.59998C8.63649 5.59998 9.24694 5.85284 9.69702 6.30292C10.1471 6.75301 10.4 7.36345 10.4 7.99997C10.4 8.63649 10.1471 9.24694 9.69702 9.69702C9.24694 10.1471 8.63649 10.4 7.99997 10.4C7.36345 10.4 6.75301 10.1471 6.30292 9.69702C5.85284 9.24694 5.59998 8.63649 5.59998 7.99997C5.59998 7.36345 5.85284 6.75301 6.30292 6.30292C6.75301 5.85284 7.36345 5.59998 7.99997 5.59998Z" fill="#44DA2C"/>
</svg>
