<svg width="183" height="183" viewBox="0 0 183 183" fill="none" xmlns="http://www.w3.org/2000/svg">
<g clip-path="url(#clip0_7_96)">
<mask id="mask0_7_96" style="mask-type:luminance" maskUnits="userSpaceOnUse" x="0" y="0" width="183" height="183">
<path d="M183 0H0V183H183V0Z" fill="white"/>
</mask>
<g mask="url(#mask0_7_96)">
<path d="M183 91.5C183 142.034 142.034 183 91.5 183C40.9659 183 0 142.034 0 91.5C0 40.9659 40.9659 0 91.5 0C142.034 0 183 40.9659 183 91.5Z" fill="#1D2633"/>
<path d="M159.47 114.863C162.56 114.863 164.758 117.866 163.595 120.729C152.042 149.198 124.115 169.275 91.4995 169.275C58.8839 169.275 30.9571 149.198 19.4037 120.729C18.2417 117.866 20.4396 114.863 23.5296 114.863H159.47Z" fill="#EDEBDE"/>
<path d="M163.595 62.2708C164.757 65.134 162.56 68.1371 159.47 68.1371H23.5296C20.4395 68.1371 18.2418 65.134 19.4037 62.2708C30.957 33.8017 58.8837 13.725 91.4995 13.725C124.115 13.725 152.042 33.8017 163.595 62.2708Z" fill="#EDEBDE"/>
<path d="M77.7747 14.9322C82.23 14.1389 86.8165 13.725 91.5 13.725C96.1831 13.725 100.769 14.1389 105.225 14.9322V68.1371H77.7747V14.9322Z" fill="#47965E"/>
<path d="M105.226 114.863H77.7734C77.7157 126.799 75.5411 138.631 71.3492 149.809L65.6936 164.892C73.7686 167.731 82.4539 169.275 91.4997 169.275C100.546 169.275 109.231 167.731 117.306 164.892L111.65 149.809C107.458 138.631 105.284 126.799 105.226 114.863Z" fill="#47965E"/>
<path d="M105.225 14.9321C115.154 16.7001 124.432 20.3524 132.675 25.5061V68.1371H105.225V14.9321Z" fill="#295837"/>
<path d="M117.306 164.892C129.79 160.501 140.816 153.018 149.464 143.358L148.113 142.5C138.635 136.468 132.842 126.075 132.678 114.863H105.226C105.284 126.799 107.458 138.631 111.651 149.809L117.306 164.892Z" fill="#295837"/>
<path d="M50.3245 25.5061C58.567 20.3524 67.8446 16.7001 77.7745 14.9321V68.1371H50.3245V25.5061Z" fill="#76FA9C"/>
<path d="M50.3215 114.863H77.7737C77.7163 126.748 75.5598 138.53 71.4031 149.666L65.6939 164.892C53.2098 160.501 42.1839 153.018 33.5364 143.358L34.8859 142.5C44.3642 136.468 50.1578 126.075 50.3215 114.863Z" fill="#76FA9C"/>
<path d="M24.4747 78.6664L24.1825 89.8678L24.215 100.42L22.3318 100.874C21.7691 100.593 21.1955 100.214 20.6111 99.738C20.0266 99.2402 19.5504 98.6448 19.1825 97.9522L20.5461 90.5821H11.9097L11.9422 100.42L10.059 100.874C9.49627 100.593 8.92267 100.214 8.33825 99.738C7.75383 99.2402 7.27763 98.6448 6.90967 97.9522L8.50059 89.4457L8.11097 77.6274L9.05254 76.9781C9.29063 77.0213 9.61531 77.1404 10.0266 77.3352C10.4595 77.53 10.8815 77.7465 11.2928 77.9846C11.7041 78.2226 12.0071 78.4499 12.2019 78.6664L11.9746 86.9457H20.676L20.3838 77.6274L21.3253 76.9781C21.5634 77.0213 21.8881 77.1404 22.2994 77.3352C22.7322 77.53 23.1543 77.7465 23.5656 77.9846C23.9769 78.2226 24.2799 78.4499 24.4747 78.6664ZM42.7144 96.1665C42.9092 96.4263 43.104 96.7942 43.2988 97.2704C43.4936 97.7467 43.6127 98.2337 43.6559 98.7315L39.2728 100.874C38.7533 100.723 38.1906 100.474 37.5845 100.128C37 99.7812 36.5563 99.4675 36.2533 99.186L36.3831 96.8159C35.3009 98.0064 34.2078 98.9587 33.1039 99.673C32 100.387 31.0367 100.788 30.2143 100.874C29.8896 100.701 29.4892 100.398 29.013 99.9652C28.5584 99.5107 28.1256 99.0129 27.7143 98.4717C27.3246 97.909 27.0649 97.3786 26.935 96.8808L27.6169 87.9197C27.9415 87.2271 28.4069 86.5344 29.013 85.8418C29.6191 85.1275 30.225 84.5538 30.8312 84.121C32.3896 83.8395 33.9048 83.6772 35.3766 83.634C36.8485 83.569 38.4719 83.818 40.2468 84.3807C40.4849 84.6405 40.7014 84.9544 40.8962 85.3223C41.091 85.6902 41.2533 86.0474 41.3832 86.3937C41.5347 86.7184 41.6212 86.9674 41.6429 87.1405C41.4264 88.0928 41.1342 89.0236 40.7663 89.9327C40.4199 90.8418 39.9978 91.7077 39.5 92.5301L39.8897 96.8808L42.7144 96.1665ZM31.4156 96.9133C32.1948 96.6318 33.0497 96.0259 33.9805 95.0951C34.9329 94.1643 35.7987 93.0604 36.578 91.7834L36.7078 86.8807C35.8204 86.859 34.9653 86.9024 34.1429 87.0106C33.3204 87.1188 32.5412 87.2811 31.8052 87.4976C31.4156 88.5798 31.1341 89.6837 30.961 90.8093C30.8095 91.9132 30.7338 92.9414 30.7338 93.8938C30.7555 94.8246 30.8312 95.5713 30.961 96.134C31.0909 96.6968 31.2425 96.9565 31.4156 96.9133ZM54.9729 83.6015C55.4706 83.8612 55.9469 84.3483 56.4014 85.0625C56.8775 85.7551 57.2131 86.4804 57.4079 87.2379L57.1157 91.2964C56.7477 91.5561 56.2823 91.7509 55.7196 91.8808C55.1567 91.9889 54.6373 92.0539 54.1612 92.0756L53.3819 91.3288C53.4901 90.5279 53.555 89.8245 53.5767 89.2184C53.62 88.5908 53.5983 88.0388 53.5118 87.5626C52.8408 88.0604 52.2131 88.7856 51.6287 89.7379C51.0658 90.6687 50.5463 91.7077 50.0702 92.8548L50.1676 100.355C49.6914 100.485 49.1394 100.55 48.5118 100.55C47.884 100.55 47.3212 100.485 46.8234 100.355C46.1524 99.6406 45.6004 98.8289 45.1676 97.9198C45.319 97.2055 45.5355 96.4479 45.8169 95.647C46.0982 94.8246 46.4229 94.0129 46.791 93.2119V92.0431L46.4014 87.5626L43.5767 88.2769C43.4251 88.0171 43.2411 87.66 43.0247 87.2054C42.8082 86.7292 42.6783 86.2422 42.6351 85.7444L47.0182 83.6015C47.2346 83.6232 47.5377 83.7421 47.9273 83.9586C48.3385 84.1751 48.739 84.4132 49.1287 84.6729C49.5398 84.911 49.8429 85.1167 50.0378 85.2898L49.9079 87.8548C50.7953 86.621 51.6936 85.6037 52.6027 84.8028C53.5118 84.0019 54.3018 83.6015 54.9729 83.6015ZM72.9309 84.056C73.169 84.2941 73.4071 84.608 73.6452 84.9976C73.8832 85.3655 74.089 85.7227 74.2621 86.069C74.4569 86.3937 74.5651 86.6427 74.5868 86.8158C74.1539 89.5863 73.4396 91.9782 72.4439 93.9912C71.4482 96.0042 70.3227 97.5951 69.0672 98.7639C67.8335 99.9111 66.6214 100.615 65.4309 100.874C65.0845 100.68 64.6516 100.366 64.1321 99.9328C63.6344 99.4999 63.1689 99.0129 62.736 98.4717C62.3032 97.909 61.9893 97.3786 61.7945 96.8808L60.6906 87.7898L58.3204 88.4067C58.1256 88.147 57.9308 87.7574 57.736 87.2379C57.5412 86.6967 57.4221 86.1772 57.3789 85.6794L62.1516 83.6015C62.6494 83.7963 63.2014 84.1859 63.8075 84.7703C64.4351 85.3331 64.9221 85.9175 65.2685 86.5236C64.9221 87.7141 64.7383 88.937 64.7166 90.1924C64.6949 91.4479 64.7815 92.5951 64.9763 93.634C65.1711 94.673 65.3876 95.4955 65.6257 96.1016C65.8854 96.7077 66.1127 96.9782 66.3075 96.9133C66.9351 96.6752 67.552 96.1233 68.1581 95.2574C68.7858 94.3916 69.3487 93.3635 69.8465 92.173L68.6127 84.7379C69.0889 84.5214 69.7274 84.3375 70.5283 84.1859C71.3292 84.0128 72.13 83.9694 72.9309 84.056ZM87.9517 95.2574C88.1032 95.4522 88.2656 95.8311 88.4387 96.3938C88.6335 96.9565 88.7201 97.4545 88.6984 97.8873C87.7676 98.2769 86.7936 98.6665 85.7763 99.0561C84.759 99.4241 83.8066 99.7704 82.9192 100.095C82.0533 100.42 81.339 100.68 80.7763 100.874C80.1052 100.701 79.4019 100.431 78.6659 100.063C77.9299 99.6947 77.259 99.2617 76.6529 98.7639C76.0468 98.2444 75.6139 97.725 75.3542 97.2055L75.8087 87.2704C76.1117 86.7292 76.5338 86.1881 77.075 85.647C77.6377 85.0842 78.1896 84.5755 78.7308 84.121C79.9863 83.8395 81.2091 83.6664 82.3997 83.6015C83.6118 83.5366 84.7698 83.5907 85.8737 83.7638C86.0685 83.872 86.3283 84.1102 86.653 84.4781C86.9993 84.8245 87.3348 85.1816 87.6595 85.5496C87.9841 85.9175 88.2006 86.1881 88.3088 86.3613L88.1789 91.199C87.6162 91.6103 86.8585 92.0431 85.9062 92.4977C84.9539 92.9522 83.904 93.396 82.7568 93.8288C81.6097 94.2401 80.4624 94.6081 79.3152 94.9327C79.3369 95.344 79.3694 95.7444 79.4126 96.134C79.4559 96.5237 79.51 96.9025 79.575 97.2704L87.9517 95.2574ZM84.7049 87.108C83.9257 86.9998 83.1681 86.9674 82.4322 87.0106C81.6962 87.0539 80.9279 87.1837 80.1269 87.4002C79.9104 88.0713 79.7373 88.7963 79.6075 89.5756C79.4776 90.3548 79.3802 91.1448 79.3152 91.9457C80.246 91.6427 81.2201 91.2531 82.2373 90.7769C83.2763 90.2791 84.2179 89.7596 85.062 89.2184L84.7049 87.108ZM93.7473 87.3028C94.072 87.9739 94.5805 88.5691 95.2733 89.0885C95.9659 89.5863 96.7451 90.1167 97.611 90.6795C98.4767 91.2206 99.3318 91.87 100.176 92.6275C101.042 93.3635 101.81 94.3051 102.481 95.4522C102.308 96.448 101.994 97.3895 101.54 98.2769C101.085 99.1643 100.533 99.8571 99.8837 100.355C98.823 100.636 97.6542 100.788 96.3772 100.809C95.1 100.853 93.7364 100.734 92.2863 100.452C92.0048 100.236 91.6801 99.9652 91.3122 99.6406C90.9442 99.2942 90.6195 98.937 90.3382 98.5691L90.5005 94.3159C90.8684 94.186 91.3013 94.1103 91.7992 94.0886C92.297 94.0453 92.7516 94.0778 93.1629 94.186L93.6824 97.725C94.6347 97.8765 95.6087 97.8873 96.6045 97.7574C97.6217 97.6059 98.4659 97.3678 99.1369 97.0431C98.5958 96.3288 97.9139 95.6903 97.0915 95.1275C96.2906 94.5648 95.4464 94.0129 94.559 93.4717C93.6931 92.909 92.8814 92.2704 92.1239 91.5561C91.3879 90.8418 90.8143 89.9652 90.4031 88.9262C90.4681 88.45 90.6087 87.9089 90.8252 87.3028C91.0416 86.6752 91.3013 86.0798 91.6044 85.5171C91.9291 84.9544 92.2753 84.5106 92.6434 84.1859C94.0503 83.7963 95.3922 83.6015 96.6694 83.6015C97.9464 83.5798 99.3101 83.7206 100.76 84.0236C101.042 84.1967 101.334 84.4998 101.637 84.9327C101.962 85.3655 102.21 85.7119 102.384 85.9716L101.929 89.9976C101.561 90.1275 101.139 90.1924 100.663 90.1924C100.187 90.1924 99.7321 90.1492 99.2993 90.0626L99.0071 86.7509C98.1412 86.6859 97.2429 86.6967 96.3123 86.7833C95.4032 86.87 94.5481 87.0431 93.7473 87.3028ZM116.046 95.8094C116.198 96.0042 116.36 96.3505 116.533 96.8483C116.707 97.3461 116.782 97.8116 116.761 98.2444C116.176 98.5908 115.505 98.937 114.748 99.2834C113.99 99.6298 113.254 99.9436 112.54 100.225C111.847 100.506 111.263 100.723 110.787 100.874C110.224 100.701 109.607 100.431 108.936 100.063C108.265 99.6947 107.659 99.2617 107.118 98.7639C106.598 98.2444 106.263 97.725 106.111 97.2055L106.825 87.9197L104.325 88.4067L103.514 86.1989L106.858 83.3093L106.631 80.7119C106.999 80.3223 107.442 79.9434 107.962 79.5755C108.481 79.1859 108.979 78.8937 109.455 78.6989L110.657 79.543L110.527 84.056C111.414 83.9694 112.323 83.9154 113.254 83.8937C114.207 83.872 115.148 83.9045 116.079 83.9911L116.403 86.5885L115.397 87.6275C113.665 87.4976 112.01 87.4652 110.429 87.5301C110.278 88.5041 110.17 89.5648 110.105 90.7119C110.04 91.8591 110.04 92.9955 110.105 94.121C110.17 95.225 110.321 96.2422 110.559 97.173L116.046 95.8094ZM135.149 78.6664L134.856 89.8678L134.889 100.42L133.006 100.874C132.443 100.593 131.869 100.214 131.285 99.738C130.701 99.2402 130.224 98.6448 129.856 97.9522L131.22 90.5821H122.584L122.616 100.42L120.733 100.874C120.17 100.593 119.597 100.214 119.012 99.738C118.428 99.2402 117.952 98.6448 117.584 97.9522L119.175 89.4457L118.785 77.6274L119.727 76.9781C119.965 77.0213 120.289 77.1404 120.701 77.3352C121.133 77.53 121.555 77.7465 121.967 77.9846C122.378 78.2226 122.681 78.4499 122.876 78.6664L122.649 86.9457H131.35L131.058 77.6274L131.999 76.9781C132.237 77.0213 132.562 77.1404 132.973 77.3352C133.406 77.53 133.828 77.7465 134.24 77.9846C134.651 78.2226 134.954 78.4499 135.149 78.6664ZM155.001 96.199C155.153 96.4587 155.336 96.8266 155.553 97.3029C155.77 97.7574 155.9 98.2337 155.943 98.7315L151.559 100.874C151.342 100.853 151.03 100.734 150.618 100.517C150.228 100.301 149.828 100.063 149.417 99.8029C149.027 99.5432 148.735 99.3376 148.54 99.186L148.67 96.4912C147.523 97.7467 146.386 98.7964 145.261 99.6406C144.157 100.463 143.291 100.874 142.663 100.874C142.339 100.701 141.906 100.398 141.365 99.9652C140.845 99.5324 140.358 99.0454 139.904 98.5042C139.449 97.963 139.157 97.4435 139.027 96.9457L139.774 87.6924L137.371 88.3093C137.176 88.0496 136.981 87.6817 136.787 87.2054C136.592 86.7292 136.473 86.2422 136.43 85.7444L140.813 83.6015C141.375 83.8829 141.971 84.2509 142.598 84.7054C143.248 85.1599 143.746 85.6577 144.092 86.1989C143.702 87.5409 143.421 88.9154 143.248 90.3223C143.096 91.7077 143.031 93.0064 143.053 94.2184C143.075 95.409 143.161 96.3938 143.313 97.173C144.113 96.8483 144.979 96.1773 145.91 95.16C146.862 94.1211 147.739 92.9414 148.54 91.621L148.702 84.4457C149.2 84.3158 149.816 84.1967 150.553 84.0885C151.31 83.9803 151.927 83.9911 152.404 84.121C152.75 84.4674 153.053 84.846 153.313 85.2574C153.572 85.6687 153.81 86.1015 154.027 86.5561C153.962 87.4435 153.724 88.385 153.313 89.3808C152.923 90.3765 152.414 91.3721 151.787 92.3678V92.4327L152.176 96.9133L155.001 96.199ZM168.692 83.6015C169.082 83.7746 169.493 84.056 169.926 84.4457C170.36 84.8353 170.749 85.279 171.095 85.7768C171.464 86.2746 171.723 86.7833 171.874 87.3028L171.387 96.9457C171.192 97.3137 170.9 97.725 170.51 98.1795C170.121 98.6124 169.688 99.0345 169.211 99.4458C168.736 99.8354 168.27 100.16 167.815 100.42C166.236 100.636 164.623 100.766 162.978 100.809C161.354 100.874 159.893 100.723 158.595 100.355C158.379 100.095 158.14 99.7921 157.88 99.4458C157.643 99.0994 157.438 98.7639 157.263 98.4393C157.091 98.1146 156.983 97.8765 156.939 97.725C157.048 97.0973 157.188 96.4804 157.361 95.8743C157.556 95.2466 157.773 94.6405 158.01 94.0561L158.043 92.0106L158.14 77.8872L155.608 78.5365C155.457 78.2768 155.272 77.9196 155.056 77.4651C154.84 76.9889 154.71 76.5018 154.666 76.004L159.049 73.8612C159.266 73.8829 159.569 73.991 159.958 74.1859C160.37 74.3807 160.77 74.6079 161.159 74.8677C161.571 75.1274 161.874 75.3547 162.069 75.5495L161.159 88.8288C162.048 87.7466 162.957 86.8158 163.887 86.0366C164.818 85.2574 165.705 84.6622 166.549 84.2509C167.393 83.818 168.108 83.6015 168.692 83.6015ZM161.517 97.6276C162.426 97.6708 163.347 97.6383 164.276 97.5302C165.208 97.422 166.16 97.2704 167.134 97.0756C167.523 95.7337 167.783 94.435 167.913 93.1795C168.065 91.9025 168.119 90.7552 168.075 89.7379C168.054 88.6989 167.978 87.8872 167.848 87.3028C167.221 87.4976 166.506 87.963 165.705 88.6989C164.926 89.4349 164.158 90.3331 163.4 91.3938C162.643 92.4544 161.971 93.5691 161.387 94.7379L161.517 97.6276Z" fill="white"/>
</g>
</g>
<defs>
<clipPath id="clip0_7_96">
<rect width="183" height="183" fill="white"/>
</clipPath>
</defs>
</svg>
