<svg width="129" height="129" viewBox="0 0 129 129" fill="none" xmlns="http://www.w3.org/2000/svg">
<g clip-path="url(#clip0_0_65)">
<mask id="mask0_0_65" style="mask-type:luminance" maskUnits="userSpaceOnUse" x="0" y="0" width="129" height="129">
<path d="M129 0H0V129H129V0Z" fill="white"/>
</mask>
<g mask="url(#mask0_0_65)">
<path d="M129 64.5C129 100.122 100.122 129 64.5 129C28.8776 129 0 100.122 0 64.5C0 28.8776 28.8776 0 64.5 0C100.122 0 129 28.8776 129 64.5Z" fill="#1D2633"/>
<path d="M112.413 80.9689C114.592 80.9689 116.141 83.0859 115.321 85.104C107.177 105.172 87.4911 119.325 64.4997 119.325C41.5084 119.325 21.8222 105.172 13.6781 85.104C12.8589 83.0859 14.4083 80.9689 16.5865 80.9689H112.413Z" fill="#EDEBDE"/>
<path d="M115.321 43.8958C116.141 45.9141 114.592 48.0311 112.413 48.0311H16.5865C14.4083 48.0311 12.859 45.9141 13.6781 43.8958C21.8222 23.8274 41.5082 9.67499 64.4997 9.67499C87.4911 9.67499 107.177 23.8274 115.321 43.8958Z" fill="#EDEBDE"/>
<path d="M54.8247 10.526C57.9653 9.96677 61.1984 9.67499 64.4999 9.67499C67.8012 9.67499 71.0342 9.96677 74.1747 10.526V48.0311H54.8247V10.526Z" fill="#47965E"/>
<path d="M74.1756 80.9689H54.8239C54.7832 89.3829 53.2503 97.7236 50.2953 105.603L46.3086 116.235C52.0008 118.237 58.1232 119.325 64.4998 119.325C70.8763 119.325 76.9986 118.237 82.691 116.235L78.7042 105.603C75.7493 97.7236 74.2163 89.3829 74.1756 80.9689Z" fill="#47965E"/>
<path d="M74.1748 10.5259C81.1743 11.7722 87.7145 14.3468 93.5248 17.9797V48.0311H74.1748V10.5259Z" fill="#295837"/>
<path d="M82.6911 116.235C91.4912 113.14 99.2637 107.865 105.36 101.056L104.408 100.451C97.7265 96.1987 93.6428 88.8725 93.5274 80.9689H74.1758C74.2164 89.3829 75.7494 97.7236 78.7046 105.603L82.6911 116.235Z" fill="#295837"/>
<path d="M35.4746 17.9797C41.2849 14.3468 47.8249 11.7722 54.8246 10.5259V48.0311H35.4746V17.9797Z" fill="#76FA9C"/>
<path d="M35.4725 80.9689H54.8241C54.7836 89.3469 53.2635 97.6524 50.3333 105.502L46.3088 116.235C37.5085 113.14 29.7362 107.865 23.6404 101.056L24.5917 100.451C31.2731 96.1987 35.3571 88.8725 35.4725 80.9689Z" fill="#76FA9C"/>
<path d="M17.2527 55.4534L17.0467 63.3494L17.0696 70.7877L15.7422 71.1081C15.3455 70.9097 14.9411 70.6428 14.5291 70.3071C14.1172 69.9562 13.7815 69.5365 13.5221 69.0483L14.4834 63.8529H8.3954L8.41829 70.7877L7.09084 71.1081C6.69413 70.9097 6.28979 70.6428 5.87782 70.3071C5.46585 69.9562 5.13017 69.5365 4.87079 69.0483L5.99226 63.0519L5.71761 54.721L6.38134 54.2632C6.54917 54.2937 6.77804 54.3777 7.06795 54.515C7.37311 54.6523 7.67064 54.8049 7.96055 54.9727C8.25045 55.1405 8.46406 55.3007 8.60138 55.4534L8.44118 61.2896H14.5749L14.3689 54.721L15.0327 54.2632C15.2005 54.2937 15.4293 54.3777 15.7193 54.515C16.0244 54.6523 16.3219 54.8049 16.6119 54.9727C16.9018 55.1405 17.1154 55.3007 17.2527 55.4534ZM30.1102 67.7895C30.2475 67.9726 30.3848 68.232 30.5221 68.5677C30.6594 68.9034 30.7434 69.2467 30.7739 69.5976L27.6841 71.1081C27.3179 71.0013 26.9213 70.8259 26.494 70.5817C26.082 70.3376 25.7692 70.1164 25.5556 69.918L25.6472 68.2472C24.8843 69.0865 24.1137 69.7578 23.3356 70.2613C22.5574 70.7648 21.8784 71.0471 21.2986 71.1081C21.0698 70.9861 20.7875 70.7724 20.4518 70.4673C20.1314 70.1469 19.8263 69.796 19.5363 69.4145C19.2617 69.0178 19.0786 68.6439 18.987 68.293L19.4677 61.9762C19.6965 61.488 20.0245 60.9996 20.4518 60.5114C20.8791 60.0079 21.3062 59.6035 21.7335 59.2984C22.8321 59.1 23.9002 58.9856 24.9377 58.9551C25.9752 58.9093 27.1195 59.0848 28.3707 59.4815C28.5385 59.6646 28.6912 59.8859 28.8285 60.1452C28.9658 60.4046 29.0802 60.6563 29.1718 60.9005C29.2786 61.1294 29.3396 61.3049 29.3549 61.4269C29.2023 62.0982 28.9963 62.7543 28.7369 63.3952C28.4928 64.036 28.1952 64.6464 27.8443 65.2262L28.119 68.293L30.1102 67.7895ZM22.1454 68.3159C22.6947 68.1175 23.2974 67.6904 23.9535 67.0342C24.6249 66.3781 25.2352 65.5999 25.7845 64.6997L25.876 61.2438C25.2505 61.2285 24.6477 61.2591 24.068 61.3353C23.4882 61.4116 22.9389 61.526 22.4201 61.6786C22.1454 62.4415 21.9471 63.2197 21.825 64.0131C21.7182 64.7913 21.6648 65.5161 21.6648 66.1874C21.6801 66.8435 21.7335 67.3699 21.825 67.7666C21.9166 68.1633 22.0234 68.3464 22.1454 68.3159ZM38.7514 58.9322C39.1023 59.1153 39.438 59.4586 39.7584 59.9621C40.094 60.4503 40.3306 60.9616 40.4679 61.4956L40.2619 64.3564C40.0025 64.5395 39.6745 64.6769 39.2778 64.7684C38.881 64.8447 38.5148 64.8904 38.1792 64.9057L37.6299 64.3793C37.7062 63.8147 37.7519 63.3189 37.7672 62.8917C37.7977 62.4492 37.7824 62.0601 37.7215 61.7244C37.2484 62.0753 36.806 62.5865 36.394 63.2579C35.9972 63.914 35.631 64.6464 35.2954 65.455L35.3641 70.7419C35.0284 70.8335 34.6393 70.8793 34.1969 70.8793C33.7543 70.8793 33.3576 70.8335 33.0067 70.7419C32.5337 70.2384 32.1446 69.6662 31.8395 69.0254C31.9462 68.5219 32.0988 67.9879 32.2972 67.4233C32.4955 66.8435 32.7244 66.2714 32.9838 65.7068V64.8828L32.7092 61.7244L30.718 62.2279C30.6112 62.0448 30.4815 61.7931 30.3289 61.4727C30.1763 61.137 30.0848 60.7936 30.0543 60.4427L33.144 58.9322C33.2966 58.9475 33.5102 59.0313 33.7849 59.184C34.0747 59.3366 34.3571 59.5044 34.6317 59.6875C34.9215 59.8553 35.1352 60.0003 35.2726 60.1223L35.181 61.9304C35.8066 61.0607 36.4398 60.3436 37.0806 59.779C37.7215 59.2144 38.2784 58.9322 38.7514 58.9322ZM51.4103 59.2526C51.5782 59.4204 51.7461 59.6417 51.9139 59.9163C52.0817 60.1757 52.2267 60.4275 52.3487 60.6716C52.486 60.9005 52.5623 61.076 52.5776 61.198C52.2725 63.151 51.7689 64.8371 51.067 66.2561C50.3651 67.6751 49.5718 68.7965 48.6868 69.6205C47.8171 70.4291 46.9627 70.925 46.1234 71.1081C45.8793 70.9708 45.5741 70.7495 45.2079 70.4444C44.857 70.1393 44.5289 69.796 44.2238 69.4145C43.9187 69.0178 43.6974 68.6439 43.5601 68.293L42.7819 61.8846L41.1112 62.3195C40.9738 62.1364 40.8365 61.8617 40.6992 61.4956C40.5619 61.1141 40.4779 60.7479 40.4474 60.397L43.8118 58.9322C44.1627 59.0695 44.5518 59.3442 44.9791 59.7561C45.4215 60.1528 45.7648 60.5648 46.009 60.992C45.7648 61.8313 45.6352 62.6933 45.6199 63.5783C45.6046 64.4633 45.6657 65.2719 45.803 66.0043C45.9403 66.7367 46.0929 67.3165 46.2607 67.7437C46.4438 68.171 46.6041 68.3617 46.7414 68.3159C47.1838 68.1481 47.6187 67.759 48.0459 67.1487C48.4884 66.5383 48.8852 65.8136 49.2361 64.9744L48.3664 59.7332C48.7021 59.5806 49.1521 59.451 49.7167 59.3442C50.2813 59.2221 50.8458 59.1916 51.4103 59.2526ZM61.9987 67.1487C62.1056 67.286 62.22 67.553 62.3421 67.9497C62.4794 68.3464 62.5404 68.6974 62.5252 69.0025C61.869 69.2772 61.1824 69.5518 60.4653 69.8265C59.7482 70.0858 59.0768 70.33 58.4512 70.5588C57.8409 70.7877 57.3374 70.9708 56.9407 71.1081C56.4677 70.9861 55.9718 70.7953 55.453 70.536C54.9342 70.2766 54.4613 69.9714 54.034 69.6205C53.6068 69.2543 53.3017 68.8881 53.1186 68.5219L53.439 61.5184C53.6526 61.137 53.9501 60.7556 54.3316 60.3741C54.7282 59.9774 55.1173 59.6188 55.4988 59.2984C56.3838 59.1 57.2458 58.978 58.0851 58.9322C58.9395 58.8864 59.7558 58.9246 60.534 59.0466C60.6713 59.1229 60.8544 59.2908 61.0833 59.5502C61.3274 59.7943 61.5639 60.0461 61.7928 60.3054C62.0216 60.5648 62.1743 60.7556 62.2505 60.8776L62.159 64.2878C61.7623 64.5777 61.2282 64.8828 60.5569 65.2033C59.8855 65.5237 59.1455 65.8365 58.3368 66.1416C57.5282 66.4316 56.7194 66.6909 55.9108 66.9198C55.9261 67.2097 55.949 67.492 55.9794 67.7666C56.0099 68.0413 56.0481 68.3083 56.0939 68.5677L61.9987 67.1487ZM59.71 61.404C59.1607 61.3277 58.6268 61.3049 58.1079 61.3353C57.5891 61.3658 57.0475 61.4574 56.483 61.61C56.3303 62.083 56.2083 62.5941 56.1168 63.1434C56.0252 63.6927 55.9566 64.2496 55.9108 64.8142C56.5669 64.6006 57.2535 64.326 57.9706 63.9902C58.703 63.6393 59.3667 63.2732 59.9618 62.8917L59.71 61.404ZM66.0842 61.5413C66.3131 62.0144 66.6716 62.4339 67.1599 62.8001C67.6481 63.151 68.1974 63.5249 68.8078 63.9216C69.418 64.3031 70.0208 64.7608 70.6158 65.2948C71.2261 65.8136 71.7678 66.4773 72.2408 67.286C72.1187 67.9879 71.8975 68.6516 71.5771 69.2772C71.2567 69.9027 70.8676 70.391 70.4099 70.7419C69.6622 70.9403 68.8382 71.0471 67.9381 71.0624C67.0378 71.0928 66.0765 71.009 65.0543 70.8106C64.8559 70.658 64.627 70.4673 64.3677 70.2384C64.1082 69.9943 63.8793 69.7425 63.6811 69.4832L63.7955 66.4849C64.0548 66.3934 64.36 66.34 64.711 66.3247C65.0619 66.2943 65.3823 66.3171 65.6722 66.3934L66.0384 68.8881C66.7097 68.9949 67.3964 69.0025 68.0983 68.911C68.8154 68.8041 69.4104 68.6363 69.8835 68.4075C69.502 67.9039 69.0213 67.4538 68.4416 67.0571C67.877 66.6604 67.2819 66.2714 66.6564 65.8899C66.046 65.4932 65.4738 65.0431 64.9398 64.5395C64.421 64.036 64.0167 63.4181 63.7268 62.6857C63.7726 62.35 63.8717 61.9686 64.0244 61.5413C64.1769 61.0989 64.36 60.6792 64.5737 60.2825C64.8025 59.8859 65.0466 59.573 65.306 59.3442C66.2978 59.0695 67.2437 58.9322 68.144 58.9322C69.0442 58.9169 70.0055 59.0162 71.0278 59.2297C71.2261 59.3518 71.4321 59.5654 71.6458 59.8706C71.8746 60.1757 72.05 60.4199 72.1722 60.603L71.8518 63.441C71.5923 63.5325 71.2948 63.5783 70.9592 63.5783C70.6234 63.5783 70.303 63.5478 69.9979 63.4867L69.7919 61.1522C69.1815 61.1065 68.5483 61.1141 67.8923 61.1751C67.2514 61.2362 66.6487 61.3582 66.0842 61.5413ZM81.8032 67.5377C81.91 67.6751 82.0244 67.9192 82.1465 68.2701C82.2686 68.621 82.322 68.9492 82.3067 69.2543C81.8947 69.4984 81.4218 69.7425 80.8877 69.9867C80.3537 70.2308 79.8349 70.452 79.3314 70.6504C78.8431 70.8488 78.4312 71.0013 78.0955 71.1081C77.6988 70.9861 77.2639 70.7953 76.7909 70.536C76.318 70.2766 75.8907 69.9714 75.5092 69.6205C75.143 69.2543 74.9065 68.8881 74.7997 68.5219L75.3032 61.9762L73.5409 62.3195L72.9687 60.7632L75.3261 58.7262L75.1659 56.8952C75.4254 56.6206 75.7381 56.3535 76.1043 56.0942C76.4705 55.8196 76.8215 55.6136 77.1571 55.4762L78.0039 56.0713L77.9124 59.2526C78.538 59.1916 79.1788 59.1535 79.8349 59.1382C80.5063 59.1229 81.17 59.1458 81.826 59.2068L82.0549 61.0378L81.3454 61.7702C80.1248 61.6786 78.9576 61.6558 77.8437 61.7015C77.737 62.3882 77.6606 63.1358 77.6148 63.9445C77.569 64.7531 77.569 65.5542 77.6148 66.3476C77.6606 67.1258 77.7674 67.8429 77.9352 68.499L81.8032 67.5377ZM95.2688 55.4534L95.0628 63.3494L95.0857 70.7877L93.7582 71.1081C93.3616 70.9097 92.9572 70.6428 92.5452 70.3071C92.1332 69.9562 91.7975 69.5365 91.5382 69.0483L92.4994 63.8529H86.4115L86.4344 70.7877L85.1069 71.1081C84.7102 70.9097 84.3059 70.6428 83.8939 70.3071C83.4819 69.9562 83.1462 69.5365 82.8869 69.0483L84.0083 63.0519L83.7337 54.721L84.3974 54.2632C84.5652 54.2937 84.7941 54.3777 85.084 54.515C85.3892 54.6523 85.6867 54.8049 85.9766 54.9727C86.2666 55.1405 86.4801 55.3007 86.6175 55.4534L86.4573 61.2896H92.591L92.385 54.721L93.0487 54.2632C93.2165 54.2937 93.4454 54.3777 93.7354 54.515C94.0405 54.6523 94.338 54.8049 94.6279 54.9727C94.9179 55.1405 95.1315 55.3007 95.2688 55.4534ZM109.263 67.8124C109.37 67.9955 109.499 68.2548 109.652 68.5906C109.805 68.911 109.897 69.2467 109.927 69.5976L106.837 71.1081C106.684 71.0928 106.463 71.009 106.173 70.8564C105.899 70.7038 105.617 70.536 105.326 70.3529C105.052 70.1698 104.846 70.0248 104.708 69.918L104.8 68.0184C103.991 68.9034 103.19 69.6434 102.397 70.2384C101.619 70.8182 101.008 71.1081 100.566 71.1081C100.337 70.9861 100.032 70.7724 99.6505 70.4673C99.2843 70.1622 98.941 69.8189 98.6206 69.4374C98.3002 69.0559 98.0942 68.6897 98.0026 68.3388L98.5291 61.816L96.8354 62.2508C96.6981 62.0677 96.5608 61.8084 96.4234 61.4727C96.2861 61.137 96.2022 60.7936 96.1717 60.4427L99.2614 58.9322C99.6581 59.1306 100.078 59.3899 100.52 59.7104C100.978 60.0308 101.329 60.3817 101.573 60.7632C101.298 61.7091 101.1 62.6781 100.978 63.6698C100.871 64.6464 100.825 65.5619 100.841 66.4163C100.856 67.2555 100.917 67.9497 101.024 68.499C101.588 68.2701 102.199 67.7971 102.855 67.08C103.526 66.3476 104.144 65.5161 104.708 64.5853L104.823 59.5273C105.173 59.4357 105.608 59.3518 106.127 59.2755C106.661 59.1993 107.096 59.2068 107.432 59.2984C107.676 59.5426 107.89 59.8095 108.073 60.0994C108.256 60.3894 108.423 60.6945 108.576 61.0149C108.531 61.6405 108.363 62.3042 108.073 63.0061C107.798 63.708 107.439 64.4098 106.997 65.1117V65.1575L107.272 68.3159L109.263 67.8124ZM118.914 58.9322C119.189 59.0542 119.479 59.2526 119.784 59.5273C120.09 59.8019 120.364 60.1147 120.608 60.4656C120.868 60.8165 121.051 61.1751 121.157 61.5413L120.814 68.3388C120.676 68.5982 120.47 68.8881 120.196 69.2085C119.921 69.5136 119.616 69.8112 119.28 70.1011C118.945 70.3757 118.617 70.6046 118.296 70.7877C117.183 70.9403 116.046 71.0319 114.886 71.0624C113.742 71.1081 112.712 71.0013 111.796 70.7419C111.644 70.5588 111.476 70.3453 111.293 70.1011C111.125 69.8569 110.981 69.6205 110.858 69.3916C110.736 69.1627 110.66 68.9949 110.629 68.8881C110.706 68.4456 110.805 68.0108 110.926 67.5835C111.064 67.1411 111.217 66.7138 111.384 66.3018L111.407 64.86L111.476 54.9041L109.691 55.3618C109.584 55.1787 109.454 54.927 109.301 54.6065C109.15 54.2708 109.058 53.9275 109.027 53.5766L112.117 52.0661C112.27 52.0814 112.483 52.1576 112.757 52.2949C113.048 52.4323 113.33 52.5925 113.604 52.7756C113.895 52.9587 114.108 53.1189 114.245 53.2562L113.604 62.617C114.231 61.8542 114.871 61.198 115.527 60.6487C116.183 60.0994 116.808 59.6799 117.404 59.3899C117.999 59.0848 118.502 58.9322 118.914 58.9322ZM113.856 68.8194C114.497 68.8499 115.146 68.827 115.801 68.7508C116.458 68.6745 117.129 68.5677 117.815 68.4303C118.09 67.4844 118.273 66.5689 118.365 65.6839C118.472 64.7837 118.51 63.975 118.479 63.2579C118.465 62.5255 118.411 61.9533 118.319 61.5413C117.877 61.6786 117.373 62.0067 116.808 62.5255C116.259 63.0443 115.718 63.6774 115.183 64.4251C114.65 65.1728 114.176 65.9585 113.764 66.7825L113.856 68.8194Z" fill="white"/>
</g>
</g>
<defs>
<clipPath id="clip0_0_65">
<rect width="129" height="129" fill="white"/>
</clipPath>
</defs>
</svg>
